<?xml version="1.0" encoding="UTF-8"?>
<svg xmlns="http://www.w3.org/2000/svg" version="1.1" viewBox="0 0 500 500">
  <defs>
    <style>
      .cls-1 {
        fill: none;
        stroke: #FF4D00;
        stroke-miterlimit: 10;
      }
    </style>
  </defs>
  <!-- Generator: Adobe Illustrator 28.7.5, SVG Export Plug-In . SVG Version: 1.2.0 Build 176)  -->
  <g>
    <g id="Camada_1">
      <g>
        <path class="cls-1" d="M17.6,191.9v93h31.4s.6-22.3.6-22.3c14.5-1.9,26.7,2.7,40.4-8.5h0c15.6-12.7,15.8-35.2,3.2-50.6-20.9-17.2-49.1-10-75.6-11.6ZM63.8,237.3c-5.2,1.1-9.8.3-14.7.3v-19.9c7.4-.6,20.8-1,21.5,7.9.4,4.7-.7,10.4-6.8,11.6Z"/>
        <path class="cls-1" d="M225.5,249.7c-6.1-10.8-8.3-20.8-12.9-31.1-4.2-9.3-10.5-.6-25.3-4.7-2-.5-3.8-.3-4.5.9-.6,1-1.1,2.6-.5,4.1l27.4,66.3c-5.3,3.7-10.6,2.3-16.5-2-2.6,6.7-9.4,14.2-9,21.3,3,6.1,13.3,5.8,19.3,6.3,15,1.2,27.5-6.3,33.4-20.8h0l30.4-75h-29c0-.1-12.7,34.7-12.7,34.7Z"/>
        <path class="cls-1" d="M375.3,214.6c-14.8-3.1-30.9-1-41.8,10-14,14.1-13.3,38.7,1.6,51.8s37.7,13,54.7,2.2h0c11.7-7.4,15.1-21.1,14-34.1-1.2-15.4-13.5-26.9-28.5-30ZM374,249.8h0c-.5,5.5-1,9.1-4.7,11.5s-8,2.2-11.4,0c-4.1-2.7-4.3-7.2-4.5-12-.2-6.6,3.5-12,9.9-12.5,6.5-.5,11.4,5.5,10.7,13.1Z"/>
        <path class="cls-1" d="M168.7,221.3c-7.1-5.7-12.3-6.4-20.9-7.1-13.3-1.1-26.8-1.8-38.5,6.7l9,19.7c7-5.5,26.7-10.6,29.9,1.4-9,.4-17.1-.8-24.9,1.1-12.5,3.1-18.9,12-17.1,25,1.3,9.7,9.3,16.2,19.8,17.9h0c9.7,1.5,18-.3,24.2-7.1l.9,6,28-.5c-1-20.5,5.4-50.6-10.4-63.2ZM144.5,266.7c-2.8,1.4-6.6,1.8-8.9-.9-1.5-1.8-.9-5,0-6.7,0,.1,13.1-6.4,13.8.8.4,4-3,5.8-4.8,6.8Z"/>
        <path class="cls-1" d="M298.3,220.7c-.8-1.8.3-5.8-1.5-5.8h-26c0,0,.1,69.8.1,69.8,9.4,0,17.9.7,27.5-.1h0c5-.4.6-28.6,3.4-39.1,1.9-7.1,12.9-6.6,18.8-6.2l.3-25.7c-8.8-1.5-15.9,2.1-22.5,7.1Z"/>
        <rect class="cls-1" x="410.9" y="189.1" width="31.5" height="95.8"/>
        <rect class="cls-1" x="453.8" y="189.1" width="28.6" height="95.8"/>
      </g>
    </g>
  </g>
</svg>