<?xml version="1.0" encoding="UTF-8"?>
<svg id="Camada_1" data-name="Camada 1" xmlns="http://www.w3.org/2000/svg" viewBox="0 0 500 500">
  <defs>
    <style>
      .cls-1 {
        fill: #fcfbf7;
      }

      .cls-2 {
        fill: #fef8e0;
      }

      .cls-3 {
        fill: #fbfbf6;
      }

      .cls-4 {
        fill: #fcfcf8;
      }

      .cls-5 {
        fill: #fcfcfa;
      }

      .cls-6 {
        fill: #fcfbf8;
      }
    </style>
  </defs>
  <path class="cls-4" d="M90,254.09c-13.71,11.15-25.89,6.57-40.38,8.5l-.57,22.29-31.42-.02v-92.99c26.45,1.64,54.67-5.6,75.59,11.64,12.58,15.35,12.37,37.9-3.22,50.58ZM63.82,237.34c6.04-1.25,7.17-6.91,6.78-11.62-.73-8.93-14.04-8.53-21.48-7.94v19.87c4.87.02,9.51.77,14.7-.31Z"/>
  <path class="cls-6" d="M236.78,290.02c-5.87,14.51-18.37,22.01-33.38,20.77-5.97-.49-16.26-.16-19.27-6.26-.4-7.04,6.32-14.63,8.95-21.28,5.89,4.33,11.2,5.7,16.51,2.01l-27.36-66.31c-.65-1.56-.16-3.12.48-4.14.75-1.19,2.54-1.43,4.51-.89,14.84,4.09,21.17-4.61,25.32,4.66,4.61,10.29,6.81,20.29,12.92,31.13l12.72-34.87,28.98.14-30.37,75.04Z"/>
  <path class="cls-1" d="M389.73,278.71c-17.05,10.78-39.8,10.85-54.7-2.23s-15.57-37.72-1.6-51.81c10.95-11.04,27.08-13.15,41.84-10.05,15,3.15,27.24,14.65,28.49,30,1.06,13.03-2.29,26.67-14.03,34.09ZM374.02,249.76c.77-7.67-4.2-13.6-10.66-13.14-6.38.45-10.15,5.86-9.9,12.5.18,4.86.44,9.39,4.52,12.05,3.4,2.22,7.66,2.36,11.35.05s4.15-5.98,4.69-11.46Z"/>
  <path class="cls-3" d="M125.97,285.97c-10.45-1.68-18.46-8.28-19.79-17.93-1.79-13.02,4.58-21.91,17.11-25.02,7.73-1.92,15.9-.7,24.85-1.08-3.19-11.96-22.88-6.92-29.92-1.38l-9.02-19.65c11.68-8.57,25.19-7.86,38.52-6.74,8.65.72,13.8,1.4,20.93,7.09,15.79,12.61,9.34,42.65,10.38,63.18l-27.98.49-.91-6.04c-6.21,6.74-14.51,8.62-24.16,7.07ZM149.29,259.89c-.68-7.17-13.84-.64-13.77-.78-.87,1.69-1.5,4.92.03,6.68,2.3,2.66,6.16,2.3,8.91.87,1.84-.96,5.21-2.76,4.83-6.77Z"/>
  <path class="cls-6" d="M298.34,284.55c-9.59.81-18.14.24-27.51.14l-.13-69.87,26.05.09c1.81,0,.76,4,1.54,5.77,6.62-4.98,13.69-8.65,22.53-7.11l-.31,25.69c-5.9-.34-16.86-.87-18.78,6.23-2.84,10.5,1.58,38.63-3.39,39.05Z"/>
  <g>
    <rect class="cls-6" x="410.87" y="189.08" width="31.46" height="95.8"/>
    <g>
      <path class="cls-2" d="M482.37,189.08v95.8h-28.6v-95.8h28.6ZM480.94,190.51h-25.74v92.94h25.74v-92.94Z"/>
      <rect class="cls-5" x="455.2" y="190.51" width="25.74" height="92.94"/>
    </g>
  </g>
</svg>